<?xml version="1.0" encoding="UTF-8" standalone="no"?>
<!-- Created with Inkscape (http://www.inkscape.org/) -->

<svg
   version="1.1"
   id="svg48"
   width="316.42105"
   height="107.36842"
   viewBox="0 0 316.42105 107.36842"
   sodipodi:docname="favicon.svg"
   inkscape:version="1.2.2 (b0a84865, 2022-12-01)"
   xmlns:inkscape="http://www.inkscape.org/namespaces/inkscape"
   xmlns:sodipodi="http://sodipodi.sourceforge.net/DTD/sodipodi-0.dtd"
   xmlns="http://www.w3.org/2000/svg"
   xmlns:svg="http://www.w3.org/2000/svg">
  <defs
     id="defs52" />
  <sodipodi:namedview
     id="namedview50"
     pagecolor="#505050"
     bordercolor="#eeeeee"
     borderopacity="1"
     inkscape:showpageshadow="0"
     inkscape:pageopacity="0"
     inkscape:pagecheckerboard="0"
     inkscape:deskcolor="#505050"
     showgrid="false"
     inkscape:zoom="2.1980392"
     inkscape:cx="124.65656"
     inkscape:cy="25.704728"
     inkscape:window-width="1492"
     inkscape:window-height="733"
     inkscape:window-x="0"
     inkscape:window-y="25"
     inkscape:window-maximized="0"
     inkscape:current-layer="g54" />
  <g
     inkscape:groupmode="layer"
     inkscape:label="Image"
     id="g54">
    <path
       style="fill:#e6e6e6;stroke-width:2.532;stroke:#000080;stroke-dasharray:none"
       d="m 146.8207,54.460305 c 0,-37.578946 0,-37.578946 14.13711,-37.578946 14.13711,0 14.13711,0 12.51104,3.947365 -2.1685,5.264166 -2.67916,14.923847 -1.07979,20.425481 5.78803,19.910133 27.13018,30.192041 45.65987,21.997335 1.90039,-0.840443 3.7041,-1.528078 4.00824,-1.528078 0.30415,0 0.553,6.821053 0.553,15.157895 0,15.157895 0,15.157895 -37.89474,15.157895 -37.89473,0 -37.89473,0 -37.89473,-37.578947 z m 26.15249,27.143102 c 1.81762,-0.862522 12.2209,-11.487904 11.65678,-11.905643 -0.12668,-0.09381 -1.50927,-0.90301 -3.07243,-1.798232 -4.16874,-2.387437 -8.41025,-6.339856 -10.79989,-10.063796 -2.10208,-3.27581 -2.10208,-3.27581 -7.35178,2.340318 -7.71106,8.249272 -8.3841,12.308035 -2.94323,17.748905 4.48115,4.481154 8.39431,5.631733 12.51055,3.678448 z M 94.399645,65.197147 c 0,-2.842106 0,-2.842106 2.842105,-2.842106 2.84211,0 2.84211,0 2.84211,2.842106 0,2.842105 0,2.842105 -2.84211,2.842105 -2.842105,0 -2.842105,0 -2.842105,-2.842105 z m 20.842105,-7.263158 c 0,-5.052632 0,-5.052632 5.05263,-5.052632 5.05263,0 5.05263,0 5.05263,5.052632 0,5.052631 0,5.052631 -5.05263,5.052631 -5.05263,0 -5.05263,0 -5.05263,-5.052631 z m 84.89074,-5.73484 c -3.82873,-0.911967 -9.08597,-4.318794 -11.43839,-7.412383 -5.8183,-7.651415 -5.02095,-19.28418 1.78854,-26.093677 3.85044,-3.85043 7.01665,-5.15559 13.27683,-5.47287 4.81834,-0.24421 5.86815,-0.0925 8.87093,1.28225 4.50936,2.06445 7.43249,4.71971 9.69783,8.809087 1.69473,3.059335 1.86061,3.894998 1.85785,9.359275 -0.003,5.293346 -0.20371,6.381099 -1.70695,9.235799 -4.128,7.839236 -13.84899,12.316575 -22.34664,10.292519 z m 12.19773,-8.558056 c 2.9332,-1.682607 5.51622,-5.504325 6.1815,-9.145861 1.13998,-6.239854 -3.96054,-13.222526 -10.74366,-14.708193 -1.75876,-0.38521 -1.71532,-0.31135 0.60531,1.029231 1.37503,0.794324 3.3559,2.661958 4.40194,4.150297 1.5645,2.225998 1.94037,3.457548 2.1187,6.942009 0.27121,5.298882 -1.38914,8.906454 -5.547,12.052397 -3.24964,2.458759 -1.54131,2.27558 2.98321,-0.31988 z M 99.452277,44.98662 c 0,-6.631578 0,-6.631578 6.631583,-6.631578 6.63157,0 6.63157,0 6.63157,6.631578 0,6.631579 0,6.631579 -6.63157,6.631579 -6.631583,0 -6.631583,0 -6.631583,-6.631579 z M 115.24175,26.670831 c 0,-9.789472 0,-9.789472 9.78947,-9.789472 9.78948,0 9.78948,0 9.78948,9.789472 0,9.789474 0,9.789474 -9.78948,9.789474 -9.78947,0 -9.78947,0 -9.78947,-9.789474 z M 89.978593,21.933988 c 0,-5.052629 0,-5.052629 5.052631,-5.052629 5.052636,0 5.052636,0 5.052636,5.052629 0,5.052633 0,5.052633 -5.052636,5.052633 -5.052631,0 -5.052631,0 -5.052631,-5.052633 z"
       id="path216"
       sodipodi:nodetypes="sssssssssssssssssssssssssssssscscsssssssssssssssssssssssss" />
  </g>
</svg>
